<?xml version="1.0" encoding="UTF-8"?>
<svg width="32" height="32" viewBox="0 0 32 32" fill="none" xmlns="http://www.w3.org/2000/svg">
  <!-- Background Circle -->
  <circle cx="16" cy="16" r="16" fill="#FF6B00"/>
  
  <!-- Person Silhouette -->
  <path d="M16 8C17.6569 8 19 9.34315 19 11C19 12.6569 17.6569 14 16 14C14.3431 14 13 12.6569 13 11C13 9.34315 14.3431 8 16 8Z" fill="white"/>
  <path d="M20 20C20 17.7909 18.2091 16 16 16C13.7909 16 12 17.7909 12 20V24H20V20Z" fill="white"/>
  
  <!-- House Symbol -->
  <path d="M24 12L16 6L8 12V24H12V16H20V24H24V12Z" fill="white" fill-opacity="0.3"/>
</svg> 